<?xml version="1.0" encoding="UTF-8"?>
<!DOCTYPE svg PUBLIC "-//W3C//DTD SVG 1.1//EN" "http://www.w3.org/Graphics/SVG/1.1/DTD/svg11.dtd">
<!-- Creator: CorelDRAW -->
<svg xmlns="http://www.w3.org/2000/svg" xml:space="preserve" width="5083px" height="1376px" version="1.1" style="shape-rendering:geometricPrecision; text-rendering:geometricPrecision; image-rendering:optimizeQuality; fill-rule:evenodd; clip-rule:evenodd"
viewBox="0 0 1417.15 383.64"
 xmlns:xlink="http://www.w3.org/1999/xlink"
 xmlns:xodm="http://www.corel.com/coreldraw/odm/2003">
 <defs>
  <style type="text/css">
   <![CDATA[
    .fil2 {fill:#FFE000}
    .fil1 {fill:#FDED3A}
    .fil0 {fill:#362140}
    .fil3 {fill:black}
    .fil4 {fill:#FFE72D}
    .fil5 {fill:#FFE72D;fill-rule:nonzero}
   ]]>
  </style>
 </defs>
 <g id="Layer_x0020_1">
  <metadata id="CorelCorpID_0Corel-Layer"/>
  <g id="_2466270026928">
   <ellipse class="fil0" cx="194.36" cy="191.82" rx="194.36" ry="191.82"/>
   <path class="fil1" d="M232.36 244.36c-0.71,4.21 -2.32,8.54 -3.76,12.04 -1.5,3.65 -3.95,7.28 -4.7,10.75 2.13,3.83 0.47,0.34 4.07,1.32 0.14,0.04 0.56,0.21 0.7,0.26 3,1.06 3.49,0.69 7.42,0.66 1.07,-0.01 2.16,-0.12 3.19,0.08l2.47 0.83c0.08,0.03 0.28,0.1 0.35,0.13 0.08,0.02 0.28,0.09 0.36,0.12l14.84 0.56c5.13,0.14 -3.29,1.3 10.6,1.11l4.95 0.91c2.78,0.97 9.89,0.67 10.96,0.82l10.95 1.07c0.15,0.01 0.56,0.02 0.71,0.04l4.24 1.33c1.53,0.3 4.81,0.08 6.36,0.08l5.31 0.11c0.07,0.02 0.27,0.08 0.35,0.09l1.06 0.18c0.07,0 0.28,-0.01 0.35,-0.01l1.06 -0.09c0.07,0.01 0.28,0.03 0.36,0.04 2.04,0.44 0.68,1.19 4.23,1.11 2.13,-0.05 4.6,-0.22 6.53,0.01 -4.03,-19.3 -13.92,-39.01 -25.53,-54.01l-9.04 -10.75c-2.39,-1.89 -2,-0.54 -3.27,-3.61 -16.03,-12.27 -12.58,-12.18 -33.65,-23.09 -7.24,-3.75 -36.2,-12.99 -44.92,-10.87 19.65,17.32 30.85,41.03 23.45,68.78zm-153.02 83.32c0.5,1.86 7.06,6.29 9.12,7.89 9.54,7.41 22.95,15.14 34.45,19.97 8.62,3.62 17.6,6.64 27.11,8.95 8.73,2.12 30.11,4.56 31.08,4.94l23.04 0c4.18,-1.92 15.42,-2.18 21.08,-3.35 6.48,-1.34 12.88,-2.78 19.21,-4.76 26.08,-8.15 56.41,-25.39 74.31,-45.13 2.35,-2.59 9.69,-9.63 10.82,-12.5l-3.93 -25.25c-0.04,-0.3 -0.19,-0.36 -0.31,-0.53 -1.93,-0.23 -4.4,-0.06 -6.53,-0.01 -3.55,0.08 -2.19,-0.67 -4.23,-1.11 -0.08,-0.01 -0.29,-0.03 -0.36,-0.04l-1.06 0.09c-0.07,0 -0.28,0.01 -0.35,0.01l-1.06 -0.18c-0.08,-0.01 -0.28,-0.07 -0.35,-0.09l-5.31 -0.11c-1.55,0 -4.83,0.22 -6.36,-0.08l-4.24 -1.33c-0.15,-0.02 -0.56,-0.03 -0.71,-0.04l-10.95 -1.07c-1.07,-0.15 -8.18,0.15 -10.96,-0.82l-4.95 -0.91c-13.89,0.19 -5.47,-0.97 -10.6,-1.11l-14.84 -0.56c-0.08,-0.03 -0.28,-0.1 -0.36,-0.12 -0.07,-0.03 -0.27,-0.1 -0.35,-0.13l-2.47 -0.83c-1.03,-0.2 -2.12,-0.09 -3.19,-0.08 -3.93,0.03 -4.42,0.4 -7.42,-0.66 -0.14,-0.05 -0.56,-0.22 -0.7,-0.26 -3.6,-0.98 -1.94,2.51 -4.07,-1.32 -3.01,1.93 -3.91,5.44 -6,8.32 -9.45,13.02 -20.29,24.41 -33.49,33.62 -15.98,11.15 -36.9,21.69 -57.69,23.05 -8.38,0.55 -17.82,0.26 -25.91,-1.05 -3.76,-0.61 -20.46,-4.43 -21.47,-3.41zm-65.03 -147.43l0 22.55c3.76,10.09 -1.73,45.88 38.55,97.68 4.74,6.09 16.76,20.62 22.21,23.54 0.86,-1.64 -1.01,-6.98 -1.47,-9.02 -2.56,-11.51 -2.99,-22.75 -2.19,-34.66 0.84,-12.56 3.91,-23.07 8.12,-34.4l1.2 -3.04c0.65,-1.2 0.1,-0.49 0.92,-1.35 3.96,-11.28 14.82,-26.25 22.2,-32.1 2.61,-2.06 4.36,-3.74 7.37,-6.05 9.03,-6.94 15.03,-9.84 24.61,-15.56 -2.58,-2.49 -7.84,-4.09 -11.11,-5.87 -8.11,-4.4 -24.31,-16.69 -27.65,-23.29 14.32,8.82 23.09,15.6 44.38,18.9l-0.86 -2.39c-0.97,-2.5 -1.41,-1.75 -2.51,-3.51 -4.24,-6.8 -2.36,-2.84 -5.18,-6.37l-3.64 -5.65c-0.03,-0.07 -0.09,-0.27 -0.13,-0.35 -1.47,-3.05 -4.65,-4.61 -6.41,-7.07l-2.38 -4.95c-0.77,-1.24 -1.83,-2.05 -2.98,-3.19 -10.67,-10.5 -1.5,-4.42 -7.02,-9.89 -12.79,-12.69 -1.71,-4.11 -13.55,-16.26 -3.82,-3.92 0.91,-2.07 -3.42,-6.36 -1.72,-1.71 -5.39,-4.83 -6.38,-6.71l-2.11 -3.19c-2.54,-3.2 0.74,0.03 -1.8,-3.18l-8.8 -11.66c-0.43,-0.49 -0.95,-0.94 -1.45,-1.42 -4.61,-4.42 -1.68,-2.43 -3.94,-5.3l-5.33 -7.72c-2.21,1.3 -7.17,7.8 -9.31,10.4 -15.45,18.79 -26.55,40.75 -33.53,64.7 -1.48,5.09 -2.79,10.54 -3.77,16.03 -0.89,5 -0.8,12.52 -2.64,16.71zm162.8 -104.17c-2.75,-19.12 25.49,-21.92 27.72,-4.02 2.3,18.55 -25.28,21.06 -27.72,4.02zm-113.55 -3.67l5.33 7.72c2.26,2.87 -0.67,0.88 3.94,5.3 0.5,0.48 1.02,0.93 1.45,1.42l8.8 11.66c2.54,3.21 -0.74,-0.02 1.8,3.18l2.11 3.19c0.99,1.88 4.66,5 6.38,6.71 4.33,4.29 -0.4,2.44 3.42,6.36 11.84,12.15 0.76,3.57 13.55,16.26 5.52,5.47 -3.65,-0.61 7.02,9.89 1.15,1.14 2.21,1.95 2.98,3.19l2.38 4.95c1.76,2.46 4.94,4.02 6.41,7.07 0.04,0.08 0.1,0.28 0.13,0.35l3.64 5.65c2.82,3.53 0.94,-0.43 5.18,6.37 1.1,1.76 1.54,1.01 2.51,3.51l0.86 2.39c13.6,2.68 43.8,-5.34 54.91,-10.67 28.4,-13.65 46.56,-47.6 55.64,-77.23 4.47,-14.61 9.69,-43.85 6.56,-59.92 -13.05,-5.54 -28.9,-9.82 -43.34,-11.86 -3.66,-0.52 -13.52,-1.09 -16.08,-1.9l-18.94 0c-8.77,3.31 -44.93,-0.9 -93.64,35.48 -4.74,3.54 -8.02,6.49 -12.07,9.87l-10.93 11.06z"/>
   <path class="fil2" d="M325.81 122.87c0.97,-0.54 0.98,0 1.5,-0.71 0.42,4.41 0.31,-0.69 1.35,5.34l0.23 1.12c0.95,3.24 1.69,1.27 3.41,5.68l17.06 28.95c2.03,4.27 1.48,1.36 3.36,5.3l1.36 2.8c0.05,0.09 0.14,0.28 0.18,0.37 0.5,0.94 0.09,0.15 0.7,1.2l9.75 16.43c1.56,3.2 1.06,2.46 3.21,4.87 0.14,-3.72 -0.66,-7.82 0.3,-11.26 2.83,-15.24 -10.18,-53.16 -15.77,-65.43 -4.88,-10.67 -24.43,-42.52 -33.65,-47.82 3.23,9.07 5.51,12.11 6.91,23.53 1.2,9.79 1.02,19.83 0.1,29.63zm0 0c-1.66,11.67 -3.16,20.55 -6.34,31.46 -1.45,5 -3.05,9.64 -4.92,14.17 -1.43,3.44 -5.56,11.36 -5.85,13.82 3.41,8.19 2.38,4.3 4.39,8.41 0.04,0.08 0.11,0.27 0.15,0.35l2.81 4.6c1.17,1.64 0.05,-0.27 0.99,1.45l13.4 23.73c1,1.75 1.25,1.49 2.35,3.29 0.63,1.01 1.32,2.78 1.89,3.77 1.77,3.08 3.88,3.33 2.76,7.82l5.48 2.67c0.99,0.25 2.46,0.09 4.19,2.96l3.06 6.1c0.55,2.96 -1.11,0.58 1.03,3.44l4.05 4.47c1.5,1.56 -0.68,1.3 1.73,0.96 2.87,-3.77 8.31,-26.52 9.43,-33.2 1.24,-7.35 4.87,-34.81 1.81,-40.18 -0.96,3.44 -0.16,7.54 -0.3,11.26 -2.15,-2.41 -1.65,-1.67 -3.21,-4.87l-9.75 -16.43c-0.61,-1.05 -0.2,-0.26 -0.7,-1.2 -0.04,-0.09 -0.13,-0.28 -0.18,-0.37l-1.36 -2.8c-1.88,-3.94 -1.33,-1.03 -3.36,-5.3l-17.06 -28.95c-1.72,-4.41 -2.46,-2.44 -3.41,-5.68l-0.23 -1.12c-1.04,-6.03 -0.93,-0.93 -1.35,-5.34 -0.52,0.71 -0.53,0.17 -1.5,0.71zm-38.33 86.67c1.27,3.07 0.88,1.72 3.27,3.61l9.04 10.75c11.61,15 21.5,34.71 25.53,54.01 0.12,0.17 0.27,0.23 0.31,0.53l3.93 25.25c3.84,-3.32 12.07,-16.03 15.26,-21.51 4,-6.9 9.97,-17.65 12.16,-25.84 -2.41,0.34 -0.23,0.6 -1.73,-0.96l-4.05 -4.47c-2.14,-2.86 -0.48,-0.48 -1.03,-3.44l-3.06 -6.1c-1.73,-2.87 -3.2,-2.71 -4.19,-2.96l-5.48 -2.67c1.12,-4.49 -0.99,-4.74 -2.76,-7.82 -0.57,-0.99 -1.26,-2.76 -1.89,-3.77 -1.1,-1.8 -1.35,-1.54 -2.35,-3.29l-13.4 -23.73c-0.94,-1.72 0.18,0.19 -0.99,-1.45l-2.81 -4.6c-0.04,-0.08 -0.11,-0.27 -0.15,-0.35 -2.01,-4.11 -0.98,-0.22 -4.39,-8.41 -1.75,1.33 -7.87,11.74 -9.77,14.37 -2.57,3.57 -8.85,11.42 -11.45,12.85zm-212.41 114.48c1.25,1.87 2.06,2.39 4.27,3.66 1.01,-1.02 17.71,2.8 21.47,3.41 8.09,1.31 17.53,1.6 25.91,1.05 20.79,-1.36 41.71,-11.9 57.69,-23.05 13.2,-9.21 24.04,-20.6 33.49,-33.62 2.09,-2.88 2.99,-6.39 6,-8.32 0.75,-3.47 3.2,-7.1 4.7,-10.75 1.44,-3.5 3.05,-7.83 3.76,-12.04 -1.81,0.62 -10,6.5 -15.74,9.32 -41.06,20.13 -101.16,14.62 -134.97,-12.13 -0.82,0.86 -0.27,0.15 -0.92,1.35l-1.2 3.04c-4.21,11.33 -7.28,21.84 -8.12,34.4 -0.8,11.91 -0.37,23.15 2.19,34.66 0.46,2.04 2.33,7.38 1.47,9.02z"/>
   <path class="fil3" d="M177.11 76.08c2.44,17.04 30.02,14.53 27.72,-4.02 -2.23,-17.9 -30.47,-15.1 -27.72,4.02z"/>
  </g>
  <g id="_2466270027792">
   <g>
    <path class="fil4" d="M526.7 68.9l35.41 98.01 -71.35 -0.16 35.94 -97.85zm-95.54 170.11c38.06,0 32.01,3.08 36.7,-9.54l11.19 -30.84 94.92 -0.15 13.97 38.04c1.05,1.91 0.46,1.47 2.25,2.49l31.77 0c-1.48,-6.89 -63.21,-174.77 -72.14,-199.4 -1.28,-3.52 -2.99,-11.21 -5.96,-13.15l-34.31 0c-1.99,0.44 -2.59,2.9 -3.44,5.37l-7.29 20.15c-3.16,8.86 -6.28,17.43 -9.61,26.43l-38.65 106.33c-3.15,8.91 -6.39,17.62 -9.61,26.41 -3.02,8.27 -7.81,19.45 -9.79,27.86z"/>
    <path class="fil4" d="M1189.7 113.76c60.37,-6.91 67.14,96.37 6.13,98.54 -27.14,0.96 -48.25,-20.93 -49.36,-46.74 -1.19,-27.73 18.08,-48.93 43.23,-51.8zm50.19 103.89l1.19 21.36 31.76 -0.04 0 -151.53 -31.56 -0.31 1.25 21.38c-0.25,-0.14 -0.54,-0.64 -0.64,-0.47l-6.54 -6.8c-2.71,-2.62 -4.75,-4.5 -7.81,-6.78 -42.13,-31.35 -113.4,3.62 -113.47,67.76 -0.08,64.53 73.46,99.95 112.54,70.24 7.65,-5.81 10.08,-11.61 13.28,-14.81z"/>
    <path class="fil4" d="M903.14 79.87l0.01 42.89c0,15.92 -0.62,108.34 0.37,116.26l30.94 -0.04c1.02,-6.49 0.29,-67.5 0.28,-79.33 -0.02,-14.53 1.15,-22.65 8.87,-31.72 5.54,-6.5 14.42,-12.91 27.44,-13.06 13.07,-0.15 22.43,6.11 27.94,12.59 8.03,9.43 9.23,16.09 9.21,31.33 -0.02,11.75 -0.77,73.86 0.31,80.08l30.8 0.14c1.52,-7.74 0.5,-79.21 0.49,-93.09 0,-28.67 -16,-48.81 -35.1,-57.63 -19.83,-9.17 -48.01,-6.32 -63.22,8.32 -1.28,1.23 -1.88,2.05 -2.9,3.05 -2.2,2.14 -1.12,1.53 -3.84,2.83l0 -90.95c-6.84,-0.82 -23.75,-0.33 -31.6,-0.31l0 68.64z"/>
    <path class="fil4" d="M672.82 102.79l-0.32 -15.64 -31.14 0.03 -0.29 151.69 31.09 0.14c1.24,-4.91 0.5,-69.57 0.49,-80.22 -0.02,-14.4 1.71,-22.51 8.87,-31.35 4.89,-6.02 15.61,-12.58 27.9,-12.58 12.19,0.01 23.25,6.68 27.87,12.62 6.93,8.9 8.82,16.99 8.81,31.31 -0.02,12.75 -1.58,72.71 0.54,80.21l30.8 -0.03c0.89,-6.4 0.25,-58.79 0.25,-69.89 0,-25.58 2.2,-40.42 -10.47,-59.49 -7.8,-11.76 -23.03,-24.95 -44.03,-26.43 -25.52,-1.8 -38.67,8.32 -50.37,19.63z"/>
    <path class="fil4" d="M1313.06 197.75l-26.34 11.31c7.34,29.6 80.94,51.19 108.65,9.47 7.77,-11.69 10.27,-29.7 1.81,-42.36 -16.57,-24.79 -62.81,-29.59 -72.59,-37.21 -8.95,-6.99 -7.76,-25.72 15.13,-29.14 8.14,-1.22 16.33,-0.23 23.03,2.98 2.71,1.3 6.94,3.85 8.53,5.24 0.74,0.65 2.5,2.56 3.3,3.51 1.34,1.6 1.25,2.11 3.1,3.82 3.11,-1.06 9.04,-5.06 12.07,-6.83 3.38,-1.97 9.77,-5.27 12.39,-7.79 -16,-32.9 -85.51,-42.3 -107.46,-1.5 -7.11,13.21 -6.33,32.15 2.45,42.58 2.18,2.6 3.94,4.28 6.35,6.54 19.08,17.87 57.34,17.79 66.54,28.67 4.41,5.21 3.29,14.26 -0.8,19.03 -3.8,4.45 -10.78,7.55 -19.01,8.31 -8.31,0.77 -15.74,-0.59 -22.46,-3.93 -8.63,-4.28 -9.8,-6 -14.69,-12.7z"/>
    <path class="fil4" d="M818.06 87.15l-23.6 0.03 0 31.36 23.87 0.18c1.25,12.35 0.14,100.39 0.1,120.17l31.61 0.03 0.19 -120.16 31.83 -0.06 0.02 -31.55 -31.49 -0.01 -0.55 -47.52 -31.59 -0.08c0.01,8.64 1.18,41.92 -0.39,47.61z"/>
    <path class="fil4" d="M1064.01 238.85l31.08 0.16c1.04,-3.98 1.04,-147.88 0,-151.85l-30.8 0.02 -0.28 151.67z"/>
    <path class="fil4" d="M1076.22 32.64c-22.66,6.25 -13.32,36.57 7.51,32 22.22,-4.88 12.78,-37.59 -7.51,-32z"/>
   </g>
   <path class="fil5" d="M491.8 278.45l-2.61 36.18c-1.57,-0.22 -4.9,-0.55 -9.96,-0.96 -3.05,-0.1 -6.64,-0.18 -10.79,-0.22l-1.09 18.5c4.35,0.08 11.07,-0.21 20.14,-0.86 -0.43,1.73 -1.09,4.57 -1.98,8.52 -0.48,2.34 -0.98,5.15 -1.54,8.45 -1.18,-0.22 -3.9,-0.57 -8.16,-1.02 -3.15,-0.24 -6.26,-0.32 -9.35,-0.24l-0.5 20.03 -35.76 0 -1.98 -45.11c-0.32,-10.35 -1.28,-24.79 -2.84,-43.27l66.42 0zm70.96 70.94c-0.43,1.54 -1.21,4.44 -2.37,8.68 -0.61,2.5 -1.11,5.42 -1.54,8.76l-57.68 0c-0.22,-9.01 -0.74,-23.86 -1.59,-44.54 -0.54,-10.59 -1.54,-25.2 -2.98,-43.84l44.24 0 -3.65 73.3c4.13,0 10.31,-0.41 18.55,-1.22 1.72,-0.14 4.04,-0.53 7.02,-1.14zm69.93 -70.94l-2.74 36.42c-1.57,-0.24 -4.98,-0.63 -10.2,-1.2 -3.57,-0.3 -7.49,-0.49 -11.73,-0.57l-0.95 10.96c4.67,0.12 12.31,0.02 22.88,-0.3 -0.46,1.44 -1.22,4.09 -2.24,7.96 -0.59,2.35 -1.11,5.04 -1.59,8.13 -1.22,-0.28 -4.31,-0.63 -9.22,-1.06 -2.31,-0.12 -5.7,-0.16 -10.2,-0.12l-0.63 12.84c3.19,-0.03 9.04,-0.29 17.59,-0.74 1.63,-0.12 4.29,-0.57 7.98,-1.38 -0.35,1.2 -1.13,4.05 -2.37,8.59 -0.61,2.33 -1.35,5.28 -2.19,8.85l-57.03 0 -1.83 -45.11c-0.35,-10.31 -1.17,-24.75 -2.48,-43.27l66.95 0zm72.44 0l-2.74 36.42c-1.56,-0.24 -4.98,-0.63 -10.2,-1.2 -3.57,-0.3 -7.48,-0.49 -11.72,-0.57l-0.96 10.96c4.68,0.12 12.31,0.02 22.88,-0.3 -0.45,1.44 -1.22,4.09 -2.24,7.96 -0.59,2.35 -1.11,5.04 -1.59,8.13 -1.21,-0.28 -4.3,-0.63 -9.22,-1.06 -2.3,-0.12 -5.7,-0.16 -10.2,-0.12l-0.63 12.84c3.2,-0.03 9.05,-0.29 17.6,-0.74 1.63,-0.12 4.28,-0.57 7.98,-1.38 -0.35,1.2 -1.13,4.05 -2.37,8.59 -0.61,2.33 -1.35,5.28 -2.2,8.85l-57.02 0 -1.83 -45.11c-0.35,-10.31 -1.18,-24.75 -2.48,-43.27l66.94 0zm83.28 0l-1.83 36.18c-1.67,-0.22 -4.35,-0.51 -8.02,-0.84 -2.27,-0.12 -5.94,-0.22 -11.03,-0.34 -0.24,2.26 -0.67,7.72 -1.31,16.4 -0.45,8.39 -1.19,20.72 -2.21,36.98l-30.8 0c-0.33,-7.73 -0.93,-19.91 -1.85,-36.53 -0.41,-5.75 -0.82,-11.37 -1.28,-16.85l-10.14 0.34 -9.17 0.84 -1.57 -36.18 79.21 0zm132.99 0c-0.58,8.06 -1.45,22.75 -2.58,44.08 -0.59,13.12 -1.03,27.88 -1.33,44.3l-23.1 0 -0.65 -27.1 -22.51 29.22 -24.34 -28.98 -0.65 26.86 -22.97 0c-0.3,-8.78 -0.87,-23.62 -1.72,-44.54 -0.58,-12.04 -1.67,-26.65 -3.24,-43.84l36.54 0c1.28,2.81 3.48,7.33 6.59,13.57 2.39,4.46 5.66,9.73 9.79,15.78 1.83,-2.62 5.18,-8 10.07,-16.17 1.74,-3.02 3.98,-7.42 6.7,-13.18l33.4 0zm83.02 88.38l-34.95 0 -2.68 -7.42c-0.95,0.33 -3.32,1.47 -7.15,3.42 -2.44,1.41 -5.16,3.32 -8.14,5.67l-3.61 -6.97c-0.71,-1.37 -1.76,-3.32 -3.11,-5.81l-3.35 11.11 -18.57 0c2.72,-9.46 6.92,-25.1 12.59,-46.88 3.48,-14.59 6.4,-28.42 8.73,-41.5l38.27 0c1.2,6.03 4.46,20.06 9.79,42.07 2.94,11.51 7,26.95 12.18,46.31zm-40.21 -18.85c-0.72,-2.04 -2.01,-5.34 -3.83,-9.92 -1.09,-2.55 -2.76,-6.05 -5.03,-10.51 -0.97,2.22 -2.52,5.9 -4.61,10.96 -1.15,2.93 -2.52,6.92 -4.11,11.94 1.29,0 4.18,-0.21 8.7,-0.68 2.72,-0.34 5.68,-0.95 8.88,-1.79zm120.88 -69.53c-0.59,7.76 -1.42,21.27 -2.46,40.58 -0.63,14.2 -1.18,30.52 -1.59,48.98 -5.57,-3.97 -14.05,-9.86 -25.45,-17.69 -4.93,-3.11 -12.28,-7.78 -22.07,-14.01l-0.63 30.52 -20.49 0c-0.35,-7.79 -1.13,-22.48 -2.35,-44.07 -1.06,-17.5 -2.15,-32.27 -3.26,-44.31l31.84 0 23.88 20.27c0,-4.65 -0.09,-8.29 -0.26,-10.94 -0.13,-2.34 -0.37,-5.46 -0.76,-9.33l23.6 0zm83.14 88.38l-34.95 0 -2.67 -7.42c-0.96,0.33 -3.33,1.47 -7.16,3.42 -2.43,1.41 -5.15,3.32 -8.13,5.67l-3.61 -6.97c-0.72,-1.37 -1.76,-3.32 -3.11,-5.81l-3.35 11.11 -18.58 0c2.72,-9.46 6.92,-25.1 12.6,-46.88 3.48,-14.59 6.39,-28.42 8.72,-41.5l38.28 0c1.19,6.03 4.45,20.06 9.78,42.07 2.94,11.51 7.01,26.95 12.18,46.31zm-40.21 -18.85c-0.72,-2.04 -2,-5.34 -3.83,-9.92 -1.09,-2.55 -2.76,-6.05 -5.02,-10.51 -0.98,2.22 -2.53,5.9 -4.61,10.96 -1.16,2.93 -2.53,6.92 -4.11,11.94 1.28,0 4.17,-0.21 8.7,-0.68 2.71,-0.34 5.67,-0.95 8.87,-1.79zm127.66 -18.97c-0.43,3.26 -1.06,9.42 -1.91,18.48 -0.43,5.4 -0.83,11.82 -1.22,19.23 -5.67,1.49 -13.98,2.23 -24.88,2.23 -16.2,0 -29.38,-3.29 -39.52,-9.89 -11.96,-7.88 -17.94,-19.57 -17.94,-35.12 0,-14.87 5.24,-26.49 15.75,-34.86 9.85,-7.88 22.83,-11.81 38.93,-11.81 6.09,0 12.61,0.42 19.57,1.26l3.4 36.36c-2.79,-0.97 -6.79,-1.44 -11.94,-1.44 -6.57,0 -12.51,1.83 -17.8,5.46 -5.93,4.11 -8.89,9.33 -8.89,15.65 0,6 2.52,10.61 7.55,13.87 4.22,2.75 9.11,4.07 14.63,3.91l-1.02 -11.59c-0.26,-2.37 -0.83,-6.28 -1.72,-11.74l27.01 0zm70.36 -50.56l-2.74 36.42c-1.56,-0.24 -4.98,-0.63 -10.2,-1.2 -3.56,-0.3 -7.48,-0.49 -11.72,-0.57l-0.96 10.96c4.68,0.12 12.31,0.02 22.88,-0.3 -0.45,1.44 -1.22,4.09 -2.24,7.96 -0.59,2.35 -1.11,5.04 -1.59,8.13 -1.21,-0.28 -4.3,-0.63 -9.22,-1.06 -2.3,-0.12 -5.7,-0.16 -10.2,-0.12l-0.63 12.84c3.2,-0.03 9.05,-0.29 17.6,-0.74 1.63,-0.12 4.28,-0.57 7.98,-1.38 -0.35,1.2 -1.13,4.05 -2.37,8.59 -0.61,2.33 -1.35,5.28 -2.2,8.85l-57.02 0 -1.83 -45.11c-0.35,-10.31 -1.18,-24.75 -2.48,-43.27l66.94 0zm91.11 33.1c0,7.05 -2.2,13.29 -6.57,18.73 -3.87,4.76 -8.72,8.17 -14.55,10.24 1.24,1.72 4.28,5.36 9.11,10.88 2.44,2.55 6.14,5.91 11.1,10.07 -1.98,0.65 -6.38,2.3 -13.16,4.93 -4.74,1.95 -9.2,3.87 -13.4,5.74 -1.24,-1.38 -4.02,-4.95 -8.33,-10.71 -1.96,-2.92 -4.83,-7.83 -8.63,-14.75l-0.11 0 -0.61 20.15 -35.89 0c-0.45,-8.36 -1.11,-22.15 -1.95,-41.36 -0.4,-11.33 -1.27,-27 -2.62,-47.02 11.68,-1.1 22.36,-1.65 32,-1.65 35.73,0 53.61,11.59 53.61,34.75zm-28.97 12.41c0,-3.65 -1.72,-6.27 -5.13,-7.84 -2.53,-1.14 -5.68,-1.65 -9.49,-1.49l-0.37 19.68c3.55,0 6.7,-0.71 9.49,-2.12 3.67,-1.85 5.5,-4.6 5.5,-8.23z"/>
  </g>
 </g>
</svg>
