<?xml version="1.0" encoding="UTF-8"?>
<!DOCTYPE svg PUBLIC "-//W3C//DTD SVG 1.1//EN" "http://www.w3.org/Graphics/SVG/1.1/DTD/svg11.dtd">
<!-- Creator: CorelDRAW -->
<svg xmlns="http://www.w3.org/2000/svg" xml:space="preserve" width="152px" height="150px" version="1.1" style="shape-rendering:geometricPrecision; text-rendering:geometricPrecision; image-rendering:optimizeQuality; fill-rule:evenodd; clip-rule:evenodd"
viewBox="0 0 22.35 22.06"
 xmlns:xlink="http://www.w3.org/1999/xlink"
 xmlns:xodm="http://www.corel.com/coreldraw/odm/2003">
 <defs>
  <style type="text/css">
   <![CDATA[
    .fil0 {fill:#FFED00}
    .fil57 {fill:#7E6EAF}
    .fil56 {fill:#7D6DAE}
    .fil55 {fill:#7D6CAE}
    .fil54 {fill:#7C6BAD}
    .fil53 {fill:#7C6AAD}
    .fil52 {fill:#7B6AAC}
    .fil51 {fill:#7A6AAC}
    .fil50 {fill:#7969AB}
    .fil49 {fill:#7A68AB}
    .fil48 {fill:#7968AB}
    .fil47 {fill:#7967AA}
    .fil46 {fill:#7867AA}
    .fil45 {fill:#7766AA}
    .fil44 {fill:#7665A9}
    .fil43 {fill:#7665A9}
    .fil42 {fill:#7664A8}
    .fil41 {fill:#7564A8}
    .fil40 {fill:#7563A8}
    .fil39 {fill:#7463A8}
    .fil38 {fill:#7362A7}
    .fil37 {fill:#7362A7}
    .fil36 {fill:#7261A7}
    .fil35 {fill:#7261A6}
    .fil34 {fill:#7260A6}
    .fil33 {fill:#715FA5}
    .fil32 {fill:#705FA5}
    .fil31 {fill:#705EA5}
    .fil30 {fill:#705EA4}
    .fil29 {fill:#6F5DA4}
    .fil28 {fill:#6E5CA3}
    .fil27 {fill:#6D5CA3}
    .fil26 {fill:#6D5BA2}
    .fil25 {fill:#6C5AA2}
    .fil24 {fill:#6B59A1}
    .fil23 {fill:#6B59A1}
    .fil22 {fill:#6A58A0}
    .fil21 {fill:#6857A0}
    .fil20 {fill:#68569F}
    .fil19 {fill:#67559E}
    .fil18 {fill:#66549E}
    .fil17 {fill:#65539D}
    .fil16 {fill:#64529C}
    .fil15 {fill:#63519B}
    .fil14 {fill:#624F9A}
    .fil13 {fill:#614F9A}
    .fil12 {fill:#5F4D99}
    .fil11 {fill:#5E4C98}
    .fil10 {fill:#5C4B97}
    .fil9 {fill:#5B4996}
    .fil8 {fill:#5A4895}
    .fil7 {fill:#584795}
    .fil6 {fill:#574593}
    .fil5 {fill:#554492}
    .fil4 {fill:#544291}
    .fil3 {fill:#534190}
    .fil2 {fill:#514090}
    .fil1 {fill:#4C3B8D}
   ]]>
  </style>
    <clipPath id="id0">
     <path d="M19.23 6.84c0.06,-0.04 0.06,0 0.09,-0.05 0.02,0.27 0.02,-0.04 0.08,0.32l0.01 0.07c0.06,0.2 0.1,0.08 0.21,0.34l1.02 1.74c0.12,0.26 0.09,0.08 0.2,0.32l0.08 0.17c0.01,0 0.01,0.01 0.02,0.02 0.02,0.06 0,0.01 0.04,0.07l0.58 0.99c0.1,0.19 0.07,0.15 0.2,0.29 0,-0.22 -0.04,-0.47 0.01,-0.68 0.17,-0.91 -0.61,-3.19 -0.94,-3.92 -0.3,-0.64 -1.47,-2.56 -2.02,-2.88 0.19,0.55 0.33,0.73 0.41,1.42 0.07,0.59 0.06,1.19 0.01,1.78zm-2.3 5.2c0.07,0.18 0.05,0.1 0.19,0.22l0.54 0.64c0.7,0.9 1.3,2.09 1.54,3.25 0,0.01 0.01,0.01 0.02,0.03l0.23 1.51c0.23,-0.2 0.73,-0.96 0.92,-1.29 0.24,-0.41 0.6,-1.06 0.73,-1.55 -0.15,0.02 -0.02,0.04 -0.11,-0.06l-0.24 -0.27c-0.13,-0.17 -0.03,-0.02 -0.06,-0.2l-0.18 -0.37c-0.11,-0.17 -0.2,-0.16 -0.26,-0.18l-0.32 -0.16c0.06,-0.27 -0.06,-0.28 -0.17,-0.47 -0.03,-0.06 -0.08,-0.16 -0.11,-0.22 -0.07,-0.11 -0.09,-0.09 -0.15,-0.2l-0.8 -1.42c-0.06,-0.11 0.01,0.01 -0.06,-0.09l-0.17 -0.28c0,0 0,-0.01 -0.01,-0.02 -0.12,-0.25 -0.06,-0.01 -0.26,-0.5 -0.11,0.08 -0.47,0.7 -0.59,0.86 -0.15,0.21 -0.53,0.68 -0.68,0.77zm2.3 -5.2c-0.1,0.7 -0.19,1.23 -0.38,1.89 -0.09,0.3 -0.19,0.57 -0.3,0.85 -0.09,0.2 -0.33,0.68 -0.35,0.83 0.2,0.49 0.14,0.25 0.26,0.5 0.01,0.01 0.01,0.02 0.01,0.02l0.17 0.28c0.07,0.1 0,-0.02 0.06,0.09l0.8 1.42c0.06,0.11 0.08,0.09 0.15,0.2 0.03,0.06 0.08,0.16 0.11,0.22 0.11,0.19 0.23,0.2 0.17,0.47l0.32 0.16c0.06,0.02 0.15,0.01 0.26,0.18l0.18 0.37c0.03,0.18 -0.07,0.03 0.06,0.2l0.24 0.27c0.09,0.1 -0.04,0.08 0.11,0.06 0.17,-0.23 0.5,-1.59 0.56,-1.99 0.08,-0.44 0.3,-2.09 0.11,-2.42 -0.05,0.21 -0.01,0.46 -0.01,0.68 -0.13,-0.14 -0.1,-0.1 -0.2,-0.29l-0.58 -0.99c-0.04,-0.06 -0.02,-0.01 -0.04,-0.07 -0.01,-0.01 -0.01,-0.02 -0.02,-0.02l-0.08 -0.17c-0.11,-0.24 -0.08,-0.06 -0.2,-0.32l-1.02 -1.74c-0.11,-0.26 -0.15,-0.14 -0.21,-0.34l-0.01 -0.07c-0.06,-0.36 -0.06,-0.05 -0.08,-0.32 -0.03,0.05 -0.03,0.01 -0.09,0.05zm-15.06 12.07c0.08,0.12 0.13,0.15 0.26,0.22 0.06,-0.06 1.06,0.17 1.29,0.21 0.48,0.08 1.05,0.09 1.55,0.06 1.25,-0.08 2.51,-0.71 3.47,-1.38 0.79,-0.56 1.44,-1.24 2.01,-2.02 0.12,-0.17 0.18,-0.38 0.36,-0.5 0.04,-0.21 0.19,-0.43 0.28,-0.65 0.09,-0.21 0.18,-0.47 0.23,-0.72 -0.11,0.04 -0.6,0.39 -0.95,0.56 -2.46,1.21 -6.07,0.88 -8.1,-0.73 -0.05,0.05 -0.02,0.01 -0.06,0.08l-0.07 0.19c-0.25,0.68 -0.44,1.31 -0.49,2.06 -0.05,0.72 -0.02,1.39 0.13,2.08 0.03,0.13 0.14,0.45 0.09,0.54z"/>
    </clipPath>
 </defs>
 <g id="Layer_x0020_1">
  <metadata id="CorelCorpID_0Corel-Layer"/>
  <ellipse class="fil0" cx="11.18" cy="11.03" rx="11.18" ry="11.03"/>
  <path class="fil1" d="M4.43 19.13c0.03,0.12 0.42,0.38 0.55,0.48 0.57,0.44 1.37,0.91 2.06,1.2 0.52,0.21 1.06,0.4 1.63,0.53 0.53,0.13 1.81,0.28 1.87,0.3l1.38 0c0.25,-0.11 0.93,-0.13 1.27,-0.2 0.39,-0.08 0.77,-0.17 1.15,-0.29 1.57,-0.49 3.39,-1.52 4.46,-2.71 0.14,-0.15 0.58,-0.57 0.65,-0.75l-0.23 -1.51c-0.01,-0.02 -0.02,-0.02 -0.02,-0.03 -0.12,-0.02 -0.27,-0.01 -0.39,-0.01 -0.22,0.01 -0.14,-0.04 -0.26,-0.06 0,0 -0.02,0 -0.02,0l-0.06 0c-0.01,0 -0.02,0 -0.03,0l-0.06 -0.01c0,0 -0.02,0 -0.02,0l-0.32 -0.01c-0.09,0 -0.29,0.01 -0.38,-0.01l-0.25 -0.08c-0.01,0 -0.04,0 -0.05,0l-0.66 -0.06c-0.06,-0.01 -0.49,0.01 -0.65,-0.05l-0.3 -0.06c-0.83,0.02 -0.33,-0.05 -0.64,-0.06l-0.89 -0.04c0,0 -0.01,0 -0.02,0 0,-0.01 -0.02,-0.01 -0.02,-0.01l-0.15 -0.05c-0.06,-0.01 -0.13,-0.01 -0.19,-0.01 -0.24,0.01 -0.27,0.03 -0.45,-0.04 0,0 -0.03,-0.01 -0.04,-0.01 -0.21,-0.06 -0.11,0.15 -0.24,-0.08 -0.18,0.12 -0.24,0.33 -0.36,0.5 -0.57,0.78 -1.22,1.46 -2.01,2.02 -0.96,0.67 -2.22,1.3 -3.47,1.38 -0.5,0.03 -1.07,0.02 -1.55,-0.06 -0.23,-0.04 -1.23,-0.27 -1.29,-0.21zm9.19 -5c-0.05,0.25 -0.14,0.51 -0.23,0.72 -0.09,0.22 -0.24,0.44 -0.28,0.65 0.13,0.23 0.03,0.02 0.24,0.08 0.01,0 0.04,0.01 0.04,0.01 0.18,0.07 0.21,0.05 0.45,0.04 0.06,0 0.13,0 0.19,0.01l0.15 0.05c0,0 0.02,0 0.02,0.01 0.01,0 0.02,0 0.02,0l0.89 0.04c0.31,0.01 -0.19,0.08 0.64,0.06l0.3 0.06c0.16,0.06 0.59,0.04 0.65,0.05l0.66 0.06c0.01,0 0.04,0 0.05,0l0.25 0.08c0.09,0.02 0.29,0.01 0.38,0.01l0.32 0.01c0,0 0.02,0 0.02,0l0.06 0.01c0.01,0 0.02,0 0.03,0l0.06 0c0,0 0.02,0 0.02,0 0.12,0.02 0.04,0.07 0.26,0.06 0.12,0 0.27,-0.01 0.39,0.01 -0.24,-1.16 -0.84,-2.35 -1.54,-3.25l-0.54 -0.64c-0.14,-0.12 -0.12,-0.04 -0.19,-0.22 -0.97,-0.74 -0.76,-0.73 -2.03,-1.39 -0.43,-0.22 -2.17,-0.78 -2.69,-0.65 1.18,1.04 1.85,2.46 1.41,4.13zm-13.1 -3.85l0 1.36c0.23,0.6 -0.1,2.75 2.32,5.86 0.28,0.37 1,1.24 1.33,1.41 0.05,-0.09 -0.06,-0.41 -0.09,-0.54 -0.15,-0.69 -0.18,-1.36 -0.13,-2.08 0.05,-0.75 0.24,-1.38 0.49,-2.06l0.07 -0.19c0.04,-0.07 0.01,-0.03 0.06,-0.08 0.23,-0.67 0.89,-1.57 1.33,-1.92 0.16,-0.13 0.26,-0.23 0.44,-0.37 0.54,-0.41 0.9,-0.59 1.48,-0.93 -0.16,-0.15 -0.47,-0.25 -0.67,-0.35 -0.48,-0.27 -1.46,-1.01 -1.66,-1.4 0.86,0.53 1.39,0.93 2.67,1.13l-0.05 -0.14c-0.06,-0.15 -0.09,-0.11 -0.16,-0.21 -0.25,-0.41 -0.14,-0.17 -0.31,-0.39l-0.21 -0.33c-0.01,-0.01 -0.01,-0.02 -0.01,-0.03 -0.09,-0.18 -0.28,-0.27 -0.39,-0.42l-0.14 -0.3c-0.05,-0.07 -0.11,-0.12 -0.18,-0.19 -0.64,-0.63 -0.09,-0.26 -0.42,-0.59 -0.77,-0.76 -0.1,-0.25 -0.81,-0.98 -0.23,-0.23 0.05,-0.12 -0.21,-0.38 -0.1,-0.1 -0.32,-0.29 -0.38,-0.4l-0.13 -0.19c-0.15,-0.2 0.05,0 -0.11,-0.2l-0.53 -0.7c-0.02,-0.03 -0.05,-0.05 -0.08,-0.08 -0.28,-0.27 -0.1,-0.15 -0.24,-0.32l-0.32 -0.46c-0.13,0.08 -0.43,0.47 -0.56,0.62 -0.93,1.13 -1.59,2.45 -2.01,3.89 -0.09,0.3 -0.17,0.63 -0.23,0.96 -0.05,0.3 -0.05,0.75 -0.16,1zm9.78 -6.25c-0.17,-1.15 1.53,-1.32 1.66,-0.24 0.14,1.11 -1.51,1.26 -1.66,0.24zm-6.82 -0.22l0.32 0.46c0.14,0.17 -0.04,0.05 0.24,0.32 0.03,0.03 0.06,0.05 0.08,0.08l0.53 0.7c0.16,0.2 -0.04,0 0.11,0.2l0.13 0.19c0.06,0.11 0.28,0.3 0.38,0.4 0.26,0.26 -0.02,0.15 0.21,0.38 0.71,0.73 0.04,0.22 0.81,0.98 0.33,0.33 -0.22,-0.04 0.42,0.59 0.07,0.07 0.13,0.12 0.18,0.19l0.14 0.3c0.11,0.15 0.3,0.24 0.39,0.42 0,0.01 0,0.02 0.01,0.03l0.21 0.33c0.17,0.22 0.06,-0.02 0.31,0.39 0.07,0.1 0.1,0.06 0.16,0.21l0.05 0.14c0.81,0.16 2.63,-0.32 3.29,-0.64 1.71,-0.82 2.8,-2.86 3.34,-4.64 0.27,-0.87 0.59,-2.63 0.4,-3.59 -0.78,-0.34 -1.74,-0.59 -2.6,-0.72 -0.22,-0.03 -0.82,-0.06 -0.97,-0.11l-1.14 0c-0.52,0.2 -2.69,-0.05 -5.62,2.13 -0.28,0.21 -0.48,0.39 -0.72,0.59l-0.66 0.67z"/>
  <g>
   <g style="clip-path:url(#id0)">
    <polygon class="fil2" points="13.9,25.77 13.7,25.63 25.73,8.41 25.93,8.55 "/>
    <polygon id="_1" class="fil3" points="13.79,25.69 13.53,25.51 25.56,8.29 25.81,8.47 "/>
    <polygon id="_2" class="fil4" points="13.62,25.57 13.36,25.39 25.39,8.17 25.64,8.35 "/>
    <polygon id="_3" class="fil5" points="13.45,25.45 13.19,25.27 25.22,8.06 25.47,8.23 "/>
    <polygon id="_4" class="fil6" points="13.28,25.33 13.02,25.16 25.05,7.94 25.3,8.11 "/>
    <polygon id="_5" class="fil7" points="13.11,25.22 12.86,25.04 24.88,7.82 25.13,8 "/>
    <polygon id="_6" class="fil8" points="12.94,25.1 12.69,24.92 24.71,7.7 24.97,7.88 "/>
    <polygon id="_7" class="fil9" points="12.77,24.98 12.52,24.8 24.54,7.58 24.8,7.76 "/>
    <polygon id="_8" class="fil10" points="12.6,24.86 12.35,24.68 24.37,7.46 24.63,7.64 "/>
    <polygon id="_9" class="fil11" points="12.43,24.74 12.18,24.57 24.2,7.35 24.46,7.52 "/>
    <polygon id="_10" class="fil12" points="12.26,24.62 12.01,24.45 24.03,7.23 24.29,7.41 "/>
    <polygon id="_11" class="fil13" points="12.09,24.51 11.84,24.33 23.87,7.11 24.12,7.29 "/>
    <polygon id="_12" class="fil14" points="11.92,24.39 11.67,24.21 23.7,6.99 23.95,7.17 "/>
    <polygon id="_13" class="fil15" points="11.76,24.27 11.5,24.09 23.53,6.87 23.78,7.05 "/>
    <polygon id="_14" class="fil16" points="11.59,24.15 11.33,23.97 23.36,6.76 23.61,6.93 "/>
    <polygon id="_15" class="fil17" points="11.42,24.03 11.16,23.86 23.19,6.64 23.44,6.81 "/>
    <polygon id="_16" class="fil18" points="11.25,23.92 10.99,23.74 23.02,6.52 23.27,6.7 "/>
    <polygon id="_17" class="fil19" points="11.08,23.8 10.82,23.62 22.85,6.4 23.1,6.58 "/>
    <polygon id="_18" class="fil20" points="10.91,23.68 10.66,23.5 22.68,6.28 22.94,6.46 "/>
    <polygon id="_19" class="fil21" points="10.74,23.56 10.49,23.38 22.51,6.16 22.77,6.34 "/>
    <polygon id="_20" class="fil22" points="10.57,23.44 10.32,23.27 22.34,6.05 22.6,6.22 "/>
    <polygon id="_21" class="fil23" points="10.4,23.33 10.15,23.15 22.17,5.93 22.43,6.11 "/>
    <polygon id="_22" class="fil24" points="10.23,23.21 9.98,23.03 22,5.81 22.26,5.99 "/>
    <polygon id="_23" class="fil25" points="10.06,23.09 9.81,22.91 21.84,5.69 22.09,5.87 "/>
    <polygon id="_24" class="fil26" points="9.89,22.97 9.64,22.79 21.67,5.57 21.92,5.75 "/>
    <polygon id="_25" class="fil27" points="9.73,22.85 9.47,22.68 21.5,5.46 21.75,5.63 "/>
    <polygon id="_26" class="fil28" points="9.56,22.73 9.3,22.56 21.33,5.34 21.58,5.51 "/>
    <polygon id="_27" class="fil29" points="9.39,22.62 9.13,22.44 21.16,5.22 21.41,5.4 "/>
    <polygon id="_28" class="fil30" points="9.22,22.5 8.96,22.32 20.99,5.1 21.24,5.28 "/>
    <polygon id="_29" class="fil31" points="9.05,22.38 8.79,22.2 20.82,4.98 21.07,5.16 "/>
    <polygon id="_30" class="fil32" points="8.88,22.26 8.63,22.08 20.65,4.87 20.9,5.04 "/>
    <polygon id="_31" class="fil33" points="8.71,22.14 8.46,21.97 20.48,4.75 20.74,4.92 "/>
    <polygon id="_32" class="fil34" points="8.54,22.03 8.29,21.85 20.31,4.63 20.57,4.81 "/>
    <polygon id="_33" class="fil35" points="8.37,21.91 8.12,21.73 20.14,4.51 20.4,4.69 "/>
    <polygon id="_34" class="fil36" points="8.2,21.79 7.95,21.61 19.97,4.39 20.23,4.57 "/>
    <polygon id="_35" class="fil37" points="8.03,21.67 7.78,21.49 19.81,4.27 20.06,4.45 "/>
    <polygon id="_36" class="fil38" points="7.86,21.55 7.61,21.38 19.64,4.16 19.89,4.33 "/>
    <polygon id="_37" class="fil39" points="7.7,21.43 7.44,21.26 19.47,4.04 19.72,4.22 "/>
    <polygon id="_38" class="fil40" points="7.53,21.32 7.27,21.14 19.3,3.92 19.55,4.1 "/>
    <polygon id="_39" class="fil41" points="7.36,21.2 7.1,21.02 19.13,3.8 19.38,3.98 "/>
    <polygon id="_40" class="fil42" points="7.19,21.08 6.93,20.9 18.96,3.68 19.21,3.86 "/>
    <polygon id="_41" class="fil43" points="7.02,20.96 6.76,20.79 18.79,3.57 19.04,3.74 "/>
    <polygon id="_42" class="fil44" points="6.85,20.84 6.6,20.67 18.62,3.45 18.87,3.62 "/>
    <polygon id="_43" class="fil44" points="6.68,20.73 6.43,20.55 18.45,3.33 18.71,3.51 "/>
    <polygon id="_44" class="fil45" points="6.51,20.61 6.26,20.43 18.28,3.21 18.54,3.39 "/>
    <polygon id="_45" class="fil45" points="6.34,20.49 6.09,20.31 18.11,3.09 18.37,3.27 "/>
    <polygon id="_46" class="fil46" points="6.17,20.37 5.92,20.19 17.94,2.97 18.2,3.15 "/>
    <polygon id="_47" class="fil46" points="6,20.25 5.75,20.08 17.78,2.86 18.03,3.03 "/>
    <polygon id="_48" class="fil47" points="5.83,20.14 5.58,19.96 17.61,2.74 17.86,2.92 "/>
    <polygon id="_49" class="fil48" points="5.67,20.02 5.41,19.84 17.44,2.62 17.69,2.8 "/>
    <polygon id="_50" class="fil49" points="5.5,19.9 5.24,19.72 17.27,2.5 17.52,2.68 "/>
    <polygon id="_51" class="fil50" points="5.33,19.78 5.07,19.6 17.1,2.38 17.35,2.56 "/>
    <polygon id="_52" class="fil50" points="5.16,19.66 4.9,19.49 16.93,2.27 17.18,2.44 "/>
    <polygon id="_53" class="fil51" points="4.99,19.54 4.73,19.37 16.76,2.15 17.01,2.32 "/>
    <polygon id="_54" class="fil51" points="4.82,19.43 4.57,19.25 16.59,2.03 16.84,2.21 "/>
    <polygon id="_55" class="fil51" points="4.65,19.31 4.4,19.13 16.42,1.91 16.68,2.09 "/>
    <polygon id="_56" class="fil52" points="4.48,19.19 4.23,19.01 16.25,1.79 16.51,1.97 "/>
    <polygon id="_57" class="fil52" points="4.31,19.07 4.06,18.89 16.08,1.68 16.34,1.85 "/>
    <polygon id="_58" class="fil53" points="4.14,18.95 3.89,18.78 15.91,1.56 16.17,1.73 "/>
    <polygon id="_59" class="fil54" points="3.97,18.84 3.72,18.66 15.75,1.44 16,1.62 "/>
    <polygon id="_60" class="fil54" points="3.8,18.72 3.55,18.54 15.58,1.32 15.83,1.5 "/>
    <polygon id="_61" class="fil54" points="3.64,18.6 3.38,18.42 15.41,1.2 15.66,1.38 "/>
    <polygon id="_62" class="fil55" points="3.47,18.48 3.21,18.3 15.24,1.08 15.49,1.26 "/>
    <polygon id="_63" class="fil55" points="3.3,18.36 3.04,18.19 15.07,0.97 15.32,1.14 "/>
    <polygon id="_64" class="fil55" points="3.13,18.24 2.87,18.07 14.9,0.85 15.15,1.03 "/>
    <polygon id="_65" class="fil56" points="2.96,18.13 2.7,17.95 14.73,0.73 14.98,0.91 "/>
    <polygon id="_66" class="fil56" points="2.79,18.01 2.54,17.83 14.56,0.61 14.81,0.79 "/>
    <polygon id="_67" class="fil56" points="2.62,17.89 2.37,17.71 14.39,0.49 14.65,0.67 "/>
    <polygon id="_68" class="fil56" points="2.45,17.77 2.2,17.6 14.22,0.38 14.48,0.55 "/>
    <polygon id="_69" class="fil57" points="2.28,17.65 2.03,17.48 14.05,0.26 14.31,0.43 "/>
    <polygon id="_70" class="fil57" points="2.11,17.54 1.86,17.36 13.88,0.14 14.14,0.32 "/>
    <polygon id="_71" class="fil57" points="1.94,17.42 2.08,17.51 14.1,0.29 13.97,0.2 "/>
   </g>
  </g>
 </g>
</svg>
